<?xml version="1.0" encoding="utf-8"?>
<!-- Generator: Adobe Illustrator 25.3.1, SVG Export Plug-In . SVG Version: 6.00 Build 0)  -->
<svg version="1.1" id="Layer_1" xmlns="http://www.w3.org/2000/svg" xmlns:xlink="http://www.w3.org/1999/xlink" x="0px" y="0px"
	 viewBox="0 0 509.2 189" style="enable-background:new 0 0 509.2 189;" xml:space="preserve">
<style type="text/css">
	.st0{enable-background:new    ;}
	.st1{fill:#2D2D2D;}
	.st2{fill:#FFFFFF;}
	.st3{fill:#0073A8;}
</style>
<g class="st0">
	<path class="st1" d="M137.9,68.7c-2.2,0-4.1-0.7-5.7-2.1c-1.6-1.4-2.4-3.3-2.4-5.8c0-2.3,0.8-4.1,2.4-5.6c1.6-1.5,3.5-2.2,5.7-2.2
		c2.1,0,3.9,0.7,5.5,2c1.6,1.3,2.4,3.3,2.4,5.8c0,2.5-0.8,4.4-2.3,5.8C141.9,68,140.1,68.7,137.9,68.7z M145.8,85.2v46.2
		c0,3.2-0.8,5.6-2.3,7.3s-3.5,2.5-5.8,2.5s-4.2-0.8-5.7-2.5s-2.2-4.1-2.2-7.2V85.7c0-3.2,0.7-5.5,2.2-7.1c1.5-1.6,3.4-2.4,5.7-2.4
		s4.3,0.8,5.8,2.4C145.1,80.1,145.8,82.4,145.8,85.2z"/>
	<path class="st1" d="M176.9,85v1.9c2.8-3.7,5.9-6.4,9.2-8.2c3.3-1.7,7.2-2.6,11.5-2.6c4.2,0,8,0.9,11.3,2.8
		c3.3,1.8,5.8,4.4,7.4,7.8c1.1,2,1.7,4.1,2.1,6.3c0.3,2.3,0.5,5.2,0.5,8.7v29.8c0,3.2-0.7,5.6-2.2,7.3s-3.4,2.5-5.7,2.5
		c-2.4,0-4.3-0.8-5.8-2.5c-1.5-1.7-2.2-4.1-2.2-7.2v-26.7c0-5.3-0.7-9.3-2.2-12.1c-1.5-2.8-4.4-4.2-8.8-4.2c-2.9,0-5.4,0.8-7.8,2.5
		s-4.1,4-5.2,7c-0.8,2.4-1.2,6.8-1.2,13.4v20c0,3.2-0.8,5.7-2.3,7.3c-1.5,1.6-3.4,2.4-5.8,2.4c-2.3,0-4.2-0.8-5.7-2.5
		c-1.5-1.7-2.2-4.1-2.2-7.2V85.2c0-3,0.7-5.3,2-6.8c1.3-1.5,3.1-2.3,5.4-2.3c1.4,0,2.7,0.3,3.8,1c1.1,0.7,2,1.7,2.7,3
		C176.5,81.4,176.9,83.1,176.9,85z"/>
	<path class="st1" d="M293.7,87.9v46.5c0,5.3-0.6,9.9-1.7,13.7c-1.1,3.8-2.9,7-5.4,9.5c-2.5,2.5-5.8,4.4-9.8,5.6
		c-4,1.2-9.1,1.8-15.1,1.8c-5.5,0-10.4-0.8-14.8-2.3c-4.3-1.5-7.7-3.5-10-6c-2.3-2.4-3.5-5-3.5-7.5c0-2,0.7-3.5,2-4.8
		c1.3-1.2,2.9-1.8,4.8-1.8c2.3,0,4.4,1,6.2,3.1c0.9,1.1,1.7,2.1,2.7,3.2c0.9,1.1,1.9,2,3,2.8s2.5,1.3,4,1.7c1.6,0.4,3.4,0.6,5.4,0.6
		c4.1,0,7.4-0.6,9.6-1.7c2.3-1.2,3.9-2.8,4.8-4.8c0.9-2.1,1.5-4.3,1.6-6.7s0.3-6.2,0.4-11.4c-2.5,3.4-5.3,6.1-8.5,7.9
		c-3.2,1.8-7.1,2.7-11.5,2.7c-5.4,0-10-1.4-14-4.1c-4-2.7-7.1-6.6-9.2-11.5c-2.1-4.9-3.2-10.6-3.2-17.1c0-4.8,0.7-9.1,2-13
		c1.3-3.9,3.2-7.1,5.6-9.8c2.4-2.7,5.2-4.7,8.4-6s6.6-2,10.4-2c4.5,0,8.5,0.9,11.8,2.6c3.3,1.7,6.4,4.5,9.3,8.2v-2.2
		c0-2.8,0.7-4.9,2.1-6.4s3.1-2.3,5.3-2.3c3.1,0,5.1,1,6.2,3C293.2,81.2,293.7,84.1,293.7,87.9z M247.3,108.1
		c0,6.5,1.4,11.4,4.2,14.7c2.8,3.3,6.5,5,11,5c2.7,0,5.2-0.7,7.5-2.1c2.4-1.4,4.3-3.6,5.8-6.4s2.2-6.4,2.2-10.5
		c0-6.5-1.4-11.6-4.3-15.2s-6.7-5.4-11.3-5.4c-4.6,0-8.2,1.7-11,5.2C248.7,96.8,247.3,101.7,247.3,108.1z"/>
	<path class="st1" d="M500.4,141.2c-2.4,0-4.5-0.8-6.3-2.3s-2.6-3.8-2.6-6.6c0-2.4,0.8-4.4,2.5-6.2c1.7-1.7,3.8-2.6,6.2-2.6
		s4.6,0.8,6.3,2.5c1.7,1.7,2.6,3.8,2.6,6.2c0,2.8-0.9,5-2.6,6.5C504.8,140.4,502.8,141.2,500.4,141.2z"/>
</g>
<path class="st2" d="M70.4,17.5c-8.2-0.1-16,1.6-23.5,4.8C19,34.6,8.7,65.9,24.3,91c12.6,20.2,25,40.4,37.4,60.7
	c4.9,8,13.6,7.9,18.4-0.3c12.2-20.8,24.5-41.4,36.6-62.3c7.4-12.7,8.4-26,3-39.6C112.2,30.4,92.4,17.7,70.4,17.5z"/>
<g>
	<image style="overflow:visible;opacity:0.25;" width="155" height="189" xlink:href="3CA33AE.png" >
	</image>
	<g>
		<path class="st3" d="M70.4,17.5c22,0.2,41.8,12.9,49.3,32c5.4,13.6,4.3,27-3,39.6c-12.1,20.8-24.4,41.5-36.6,62.3
			c-4.8,8.2-13.5,8.3-18.4,0.3C49.3,131.4,36.9,111.1,24.3,91C8.7,65.9,19,34.6,46.9,22.3C54.4,19.1,62.2,17.4,70.4,17.5z M62.9,108
			c1.8,0.1,3.1,0.3,4.3,0.3c25.3,1.9,46.3-20.9,41.8-45.8c-3-16.8-13.2-27.8-29.8-32.2c-15.1-4-31.6,1.8-40.8,14.4
			c-10.1,13.8-11.1,28.6-2.9,43.7c3.1,5.7,6.5,11.3,9.8,16.9c6.2,10.6,12.4,21.3,18.6,31.9c2.4,4.1,6.1,5.3,9.6,3.3
			c3.8-2.1,4.7-6,2.4-10.1C71.8,123.1,67.5,115.8,62.9,108z"/>
	</g>
</g>
<path class="st2" d="M62.9,108c4.6,7.9,8.9,15.1,13.1,22.5c2.4,4.1,1.4,8-2.4,10.1c-3.6,2-7.2,0.7-9.6-3.3
	c-6.2-10.6-12.4-21.2-18.6-31.9c-3.3-5.6-6.7-11.2-9.8-16.9c-8.2-15.1-7.2-29.9,2.9-43.7c9.2-12.6,25.7-18.5,40.8-14.4
	C95.9,34.7,106,45.7,109,62.5c4.5,24.9-16.5,47.6-41.9,45.8C65.9,108.2,64.7,108.1,62.9,108z M70.3,43.3
	c-14.1-0.2-25.5,10.9-25.7,25C44.4,82,55.6,93.7,69.1,94C83.4,94.4,95,83.3,95.3,69.1C95.6,55.2,84.4,43.5,70.3,43.3z"/>
<g>
	
		<image style="overflow:visible;opacity:0.25;" width="100" height="100" xlink:href="3CA33B2.png"  transform="matrix(1 0 0 1 27 26)">
	</image>
	<g>
		<path class="st3" d="M95.3,69.1C95,83.3,83.3,94.3,69.1,94c-13.5-0.3-24.7-12-24.5-25.7c0.2-14.1,11.7-25.3,25.7-25
			C84.3,43.5,95.6,55.2,95.3,69.1z"/>
	</g>
</g>
<path class="st2" d="M69.7,86.5c-8.6-0.1-15.8-6.8-16.4-15.2c-0.1-1.4-0.2-2.5,1.7-2.5c1.6,0,2.7,0,3,2.2
	c0.9,7.6,7.5,12.1,14.8,10.4c4.9-1.1,8.5-4.9,9.1-10.1c0.3-2.6,1.7-2.5,3.4-2.3c2.1,0.2,1.5,1.8,1.3,3
	C85.2,80.7,78.3,86.6,69.7,86.5z"/>
<circle class="st2" cx="58.1" cy="58.1" r="3.5"/>
<circle class="st2" cx="82" cy="58.1" r="3.5"/>
<path class="st1" d="M340,126.8l-13.8-54.7v59.3c0,3.3-0.7,5.7-2.2,7.4c-1.5,1.7-3.4,2.5-5.8,2.5c-2.3,0-4.3-0.8-5.7-2.4
	c-1.5-1.6-2.2-4.1-2.2-7.4v-68c0-3.8,1-6.3,2.9-7.6c2-1.3,4.6-2,7.9-2h5.4c3.2,0,5.6,0.3,7.1,0.9s2.5,1.6,3.3,3.2s1.5,4,2.4,7.4
	l12.5,47.1l12.5-47.1c0.9-3.4,1.7-5.9,2.4-7.4s1.8-2.6,3.3-3.2s3.8-0.9,7.1-0.9h5.4c3.3,0,6,0.7,7.9,2c2,1.3,2.9,3.8,2.9,7.6v68
	c0,3.3-0.7,5.7-2.2,7.4c-1.5,1.7-3.4,2.5-5.9,2.5c-2.3,0-4.2-0.8-5.7-2.5c-1.5-1.6-2.2-4.1-2.2-7.4V72.1l-13.8,54.7
	c-0.9,3.6-1.6,6.2-2.2,7.8c-0.6,1.7-1.6,3.2-3.1,4.5s-3.6,2.1-6.3,2.1c-2,0-3.8-0.4-5.2-1.3c-1.4-0.9-2.5-2-3.3-3.4
	c-0.8-1.4-1.4-2.9-1.8-4.5C340.9,130.3,340.4,128.6,340,126.8z"/>
<path class="st1" d="M467.5,67.2h-39.2v21.1h36.1c2.7,0,4.6,0.6,5.9,1.8c1.3,1.2,2,2.8,2,4.7c0,2-0.6,3.5-1.9,4.8s-3.3,1.8-6,1.8
	h-36.1v24.4h40.5c2.7,0,4.8,0.6,6.2,1.9c1.4,1.3,2.1,3,2.1,5.1c0,2-0.7,3.7-2.1,5s-3.4,1.9-6.2,1.9h-47.3c-3.8,0-6.5-0.8-8.2-2.5
	s-2.5-4.4-2.5-8.1V64.5c0-2.5,0.4-4.5,1.1-6.1s1.9-2.7,3.5-3.5c1.6-0.7,3.6-1.1,6.1-1.1h45.9c2.8,0,4.8,0.6,6.2,1.8s2,2.8,2,4.8
	s-0.7,3.7-2,4.9C472.3,66.5,470.3,67.2,467.5,67.2z"/>
</svg>
